<?xml version="1.0" encoding="utf-8"?>
<!-- Generator: Adobe Illustrator 16.0.0, SVG Export Plug-In . SVG Version: 6.00 Build 0)  -->
<!DOCTYPE svg PUBLIC "-//W3C//DTD SVG 1.1//EN" "http://www.w3.org/Graphics/SVG/1.1/DTD/svg11.dtd">
<svg version="1.1" id="Layer_1" xmlns="http://www.w3.org/2000/svg" xmlns:xlink="http://www.w3.org/1999/xlink" x="0px" y="0px"
	 width="135px" height="114px" viewBox="0 0 135 114" enable-background="new 0 0 135 114" xml:space="preserve">
<path fill-rule="evenodd" clip-rule="evenodd" d="M75,13c10.729,2.184,19.309,10.28,29.601,14.186
	c9.933,3.768,12.194,14.336,5.24,22.36c-2.59,2.989-5.912,4.812-9.579,6.072C83.388,61.422,66.234,65.988,48.369,67.5
	c-4.031,0.341-8.02,0.238-11.898-0.738c-7.786-1.96-10.363-9.558-5.467-15.928c1.204-1.567,2.598-3.111,4.209-4.225
	c8.373-5.784,14.614-13.463,20.214-21.822C58.675,19.938,62.069,14.279,68,13C70.28,12.508,72.714,12.535,75,13z M76,101
	c0.977-0.156,23.167-3,41.51-28.397c0.918-1.533,1.51-2.892,2.258-4.342c-22.564,33.242-67.941,39.188-97.209,9.836
	c3.715,5.455,8.6,9.704,14.022,13.448C43.692,96.454,51.603,99.864,60,101C65.285,101.715,70.734,101.843,76,101z M40.376,57.07
	c7.027,0.11,13.935-1.04,20.836-2.122c13.181-2.066,26.131-5.124,38.61-9.897c4.63-1.771,10.385-3.521,10.928-8.801
	c0.288-2.804-1.418-4.768-3.527-5.596c-10.399-4.081-19.914-10.022-30.197-14.289c-6.101-2.531-11.79-1.269-16.176,4.092
	c-1.475,1.803-3.147,3.469-4.438,5.393c-5.685,8.482-11.848,16.476-20.454,22.295c-2.104,1.422-4.308,3.644-2.593,6.642
	C34.889,57.449,37.881,57.031,40.376,57.07z"/>
<path fill-rule="evenodd" clip-rule="evenodd" d="M62.478,43.777c2.583-4.862,8.321-5.999,10.869-10.542
	c-1.05-3.263-4.96-4.009-6.477-8.33c10.345,3.442,19.011,7.983,27.46,13.254c-5.757,1.221-10.816-4.123-16.423-1.838
	C72.628,38.473,67.61,41.266,62.478,43.777z"/>
</svg>
